P3
8 8
255
255 0 0  255 128 0  255 255 0  128 255 0  0 255 0  0 255 128  0 255 255  0 128 255
255 0 128  255 0 255  128 0 255  0 0 255  0 64 255  0 128 255  0 192 255  0 255 255
64 64 64  96 96 96  128 128 128  160 160 160  192 192 192  224 224 224  255 255 255  32 32 32
255 64 64  255 96 96  255 128 128  255 160 160  255 192 192  255 224 224  255 255 255  224 32 32
64 255 64  96 255 96  128 255 128  160 255 160  192 255 192  224 255 224  255 255 255  32 224 32
64 64 255  96 96 255  128 128 255  160 160 255  192 192 255  224 224 255  255 255 255  32 32 224
255 200 120  240 180 100  220 160 80  200 140 60  180 120 40  160 100 20  140 80 10  120 60 0
20 20 20  40 40 40  60 60 60  80 80 80  100 100 100  120 120 120  140 140 140  160 160 160
